# AST/ASF file generated using VICON BodyLanguage
# -----------------------------------------------
:version 1.10
:name VICON
:units
  mass 1.0
  length 0.45
  angle deg
:documentation
   .ast/.asf automatically generated from VICON data using
   VICON BodyBuilder and BodyLanguage model FoxedUp or BRILLIANT.MOD
:root
   order TX TY TZ RX RY RZ
   axis XYZ
   position 0 0 0  
   orientation 0 0 0 
:bonedata
  begin
     id 1 
     name lhipjoint
     direction 0.660183 -0.676772 0.325788 
     length 2.75133 
     axis 0 0 0  XYZ
  end
  begin
     id 2 
     name lfemur
     direction 0.34202 -0.939693 0  
     length 7.70317  
     axis 0 0 20  XYZ
    dof rx ry rz
    limits (-160.0 20.0)
           (-70.0 70.0)
           (-60.0 70.0)
  end
  begin
     id 3 
     name ltibia
     direction 0.342105 -0.939662 0   
     length 7.18701   
     axis 0 0 20   XYZ
    dof rx
    limits (-10.0 170.0)
  end
  begin
     id 4 
     name lfoot
     direction 0.14163 -0.389126 0.910232   
     length 2.41719   
     axis -90 7.62852e-016 20   XYZ
    dof rx rz
    limits (-45.0 90.0)
           (-70.0 20.0)
  end
  begin
     id 5 
     name ltoes
     direction 1.53533e-011 -4.21926e-011 1   
     length 1.18611   
     axis -90 7.62852e-016 20   XYZ
    dof rx
    limits (-90.0 20.0)
  end
  begin
     id 6 
     name rhipjoint
     direction -0.6658 -0.67229 0.323631   
     length 2.76968  
     axis 0 0 0  XYZ 
  end
  begin
     id 7 
     name rfemur
     direction -0.34202 -0.939693 0   
     length 7.92547   
     axis 0 0 -20   XYZ
    dof rx ry rz
    limits (-160.0 20.0)
           (-70.0 70.0)
           (-70.0 60.0)
  end
  begin
     id 8 
     name rtibia
     direction -0.342022 -0.939692 0   
     length 7.22641   
     axis 0 0 -20   XYZ
    dof rx
    limits (-10.0 170.0)
 end
 begin
     id 9 
     name rfoot
     direction -0.105675 -0.29034 0.951071   
     length 2.48149  
     axis -90 -7.62852e-016 -20   XYZ
    dof rx rz
    limits (-45.0 90.0)
           (-20.0 70.0)
  end
  begin
     id 10 
     name rtoes
     direction -1.5349e-011 -4.21859e-011 1   
     length 1.23343   
     axis -90 -7.62852e-016 -20   XYZ
    dof rx
    limits (-90.0 20.0)
  end
  begin
     id 11 
     name lowerback
     direction 0.0104173 0.993624 -0.112266   
     length 2.00527   
     axis 0 0 0   XYZ
    dof rx ry rz
    limits (-20.0 45.0)
           (-30.0 30.0)
           (-30.0 30.0)
  end
  begin
     id 12 
     name upperback
     direction 0.00733149 0.999856 -0.0152913   
     length 2.01385   
     axis 0 0 0   XYZ
    dof rx ry rz
    limits (-20.0 45.0)
           (-30.0 30.0)
           (-30.0 30.0)
  end
  begin
     id 13 
     name thorax
     direction 0.0026304 0.999318 0.036841   
     length 2.03734   
     axis 0 0 0   XYZ
    dof rx ry rz
    limits (-20.0 45.0)
           (-30.0 30.0)
           (-30.0 30.0)
  end
  begin
     id 14 
     name lowerneck
     direction 0.0293154 0.998757 0.0403082   
     length 1.65303   
     axis 0 0 0   XYZ
    dof rx ry rz
    limits (-20.0 45.0)
           (-30.0 30.0)
           (-30.0 30.0)
  end
  begin
     id 15 
     name upperneck
     direction -0.0376619 0.998184 -0.0470083   
     length 1.60926   
     axis 0 0 0   XYZ
    dof rx ry rz
    limits (-20.0 45.0)
           (-30.0 30.0)
           (-30.0 30.0)
  end
  begin
     id 16
     name head
     direction -0.0170133 0.999635 -0.0209778  
     length 1.73625  
     axis 0 0 0   XYZ
    dof rx ry rz
    limits (-20.0 45.0)
           (-30.0 30.0)
           (-30.0 30.0)
  end
  begin
     id 17 
     name lclavicle
     direction 0.919857 0.39181 -0.0186333  
     length 3.75313  
     axis 0 0 0   XYZ
    dof ry rz
    limits (-20.0 10.0)
           (0.0 20.0)
  end
  begin
     id 18 
     name lhumerus
     direction 1 -4.48988e-011 1.44029e-027   
     length 5.49313   
     axis 180 -30 -90   XYZ
    dof rx ry rz
    limits (-60.0 90.0)
           (-90.0 90.0)
           (-90.0 90.0)
  end
  begin
     id 19
     name lradius
     direction 1 -4.48924e-011 7.46281e-027   
     length 3.29037   
     axis 180 -30 -90   XYZ
    dof rx
    limits (-10.0 170.0)
  end
  begin
     id 20
     name lwrist
     direction 1 -4.48955e-011 2.19879e-026   
     length 1.64519   
     axis -1.34358e-014 90 90   XYZ
    dof ry
    limits (-180.0 0.0)
 end
  begin
     id 21 
     name lhand
     direction 1 -4.48978e-011 4.39747e-026   
     length 0.729656   
     axis -2.80598e-014 90 90   XYZ
    dof rx rz
    limits (-90.0 90.0)
           (-45.0 45.0)
  end
  begin
     id 22 
     name lfingers
     direction 1 -4.49071e-011 8.79411e-026   
     length 0.588268   
     axis -5.61193e-014 90 90   XYZ
    dof rx
    limits (0.0 90.0)
  end
  begin
     id 23
     name lthumb
     direction 0.707107 -6.34817e-011 0.707107   
     length 0.844638   
     axis -90 45 -9.86923e-015   XYZ
    dof rx rz
    limits (-45.0 45.0)
           (-45.0 45.0)
  end
  begin
     id 24 
     name rclavicle
     direction -0.919898 0.388279 0.0550233   
     length 3.7171  
     axis 0 0 0   XYZ 
    dof ry rz
    limits (-10.0 20.0)
           (-20.0 0.0)
  end
  begin
     id 25 
     name rhumerus
     direction -1 -4.48968e-011 9.98372e-028  
     length 5.23684   
     axis 180 30 90   XYZ
    dof rx ry rz
    limits (-90.0 60.0)
           (-90.0 90.0)
           (-90.0 90.0)
  end
  begin
     id 26 
     name rradius
     direction -1 -4.48956e-011 1.01023e-026   
     length 3.38251   
     axis 180 30 90   XYZ
    dof rx
    limits (-10.0 170.0)
  end
  begin
     id 27 
     name rwrist
     direction -1 -4.4892e-011 2.19886e-026   
     length 1.69126   
     axis -1.34358e-014 -90 -90   XYZ
    dof ry
    limits (-180.0 0.0)
  end
  begin
     id 28
     name rhand
     direction -1 -4.49024e-011 4.39727e-026   
     length 0.691454   
     axis -2.80598e-014 -90 -90   XYZ
    dof rx rz
    limits (-90.0 90.0)
           (-45.0 45.0)
  end
  begin
     id 29
     name rfingers
     direction -1 -4.49097e-011 8.79388e-026   
     length 0.557468   
     axis -5.61193e-014 -90 -90   XYZ
    dof rx
    limits (0.0 90.0)
  end
  begin
     id 30
     name rthumb
     direction -0.707107 -6.34938e-011 0.707107   
     length 0.800416   
     axis -90 -45 9.86923e-015   XYZ
    dof rx rz
    limits (-45.0 45.0)
           (-45.0 45.0)
  end
:hierarchy
  begin
    root lhipjoint rhipjoint lowerback
    lhipjoint lfemur
    lfemur ltibia
    ltibia lfoot
    lfoot ltoes
    rhipjoint rfemur
    rfemur rtibia
    rtibia rfoot
    rfoot rtoes
    lowerback upperback
    upperback thorax
    thorax lowerneck lclavicle rclavicle
    lowerneck upperneck
    upperneck head
    lclavicle lhumerus
    lhumerus lradius
    lradius lwrist
    lwrist lhand lthumb
    lhand lfingers
    rclavicle rhumerus
    rhumerus rradius
    rradius rwrist
    rwrist rhand rthumb
    rhand rfingers
  end

#!OML:ASF H:\BabyWalks\Project 1\Capture day 1\Session 1\baby.ASF
:FULLY-SPECIFIED
:DEGREES
39
root -7.36353 17.4103 -1.72434 137.053 -81.6596 -140.352
lowerback 8.43411 -0.145864 1.8204
upperback 1.07634 -0.0111868 1.64455
thorax -3.61352 -0.0415701 0.681456
lowerneck -7.66147 1.1691 5.10324
upperneck 4.8946 1.32272 -4.43638
head 3.02775 0.594167 -2.30629
rclavicle -2.55314e-015 -4.77083e-015
rhumerus -19.1698 -43.6319 -13.4098
rradius 28.5298
rwrist 26.4689
rhand -2.60927 -16.4977
rfingers 7.12502
rthumb 23.0889 -45.1344
lclavicle -2.55314e-015 -4.77083e-015
lhumerus -25.8698 53.2616 8.99171
lradius 32.905
lwrist -25.6768
lhand 4.57005 18.5607
lfingers 7.12502
lthumb 29.9598 46.1552
rfemur -2.63594 16.9177 21.577
rtibia 28.9079
rfoot -24.6168 -29.7049
rtoes 2.22003
lfemur -2.50891 -16.8731 -13.8155
ltibia 32.5926
lfoot -26.5177 38.1336
ltoes -0.827724
40
root -7.35956 17.411 -1.7198 137.137 -81.645 -140.419
lowerback 8.44914 -0.142236 1.81115
upperback 1.07452 -0.00676581 1.64234
thorax -3.62379 -0.0393047 0.683946
lowerneck -7.65963 1.15706 5.10917
upperneck 4.88702 1.30761 -4.46318
head 3.02456 0.585757 -2.31718
rclavicle 1.49461e-014 -9.54166e-015
rhumerus -19.1298 -43.5693 -13.4417
rradius 28.5558
rwrist 26.4337
rhand -2.58997 -16.4493
rfingers 7.12502
rthumb 23.1074 -45.0836
lclavicle 1.49461e-014 -9.54166e-015
lhumerus -25.9046 53.2733 8.9537
lradius 32.9212
lwrist -25.6876
lhand 4.58089 18.5492
lfingers 7.12502
lthumb 29.9701 46.1419
rfemur -2.67181 16.9322 21.5532
rtibia 28.8939
rfoot -24.5837 -29.7056
rtoes 2.2183
lfemur -2.54696 -16.8534 -13.8151
ltibia 32.5993
lfoot -26.5176 38.1275
ltoes -0.793443
41
root -7.35552 17.4118 -1.71532 137.219 -81.6309 -140.483
lowerback 8.46424 -0.138284 1.80456
upperback 1.07129 -0.00163481 1.63914
thorax -3.63557 -0.0367237 0.683819
lowerneck -7.66253 1.14302 5.10494
upperneck 4.88773 1.28989 -4.47521
head 3.02453 0.57638 -2.32142
rclavicle 1.22004e-014 1.09332e-014
rhumerus -19.0989 -43.4923 -13.4712
rradius 28.5891
rwrist 26.3793
rhand -2.5755 -16.4085
rfingers 7.12502
rthumb 23.1213 -45.0411
lclavicle 1.22004e-014 1.09332e-014
lhumerus -25.9325 53.2819 8.92463
lradius 32.9393
lwrist -25.7
lhand 4.59666 18.5431
lfingers 7.12502
lthumb 29.9852 46.133
rfemur -2.70724 16.9462 21.5297
rtibia 28.8792
rfoot -24.548 -29.7068
rtoes 2.21311
lfemur -2.58482 -16.8339 -13.8144
ltibia 32.6053
lfoot -26.5165 38.1209
ltoes -0.759421
42
root -7.3515 17.4125 -1.7108 137.302 -81.6194 -140.55
lowerback 8.48045 -0.134945 1.79946
upperback 1.06624 0.00288883 1.63444
thorax -3.64985 -0.0344666 0.681394
lowerneck -7.6725 1.13067 5.08415
upperneck 4.90278 1.27481 -4.46582
head 3.03024 0.568746 -2.31536
rclavicle -7.92654e-015 -1.63003e-014
rhumerus -19.0773 -43.4028 -13.4976
rradius 28.6298
rwrist 26.3118
rhand -2.56146 -16.3703
rfingers 7.12502
rthumb 23.1348 -45.0012
lclavicle -7.92654e-015 -1.63003e-014
lhumerus -25.9581 53.2774 8.90081
lradius 32.959
lwrist -25.7043
lhand 4.62308 18.5361
lfingers 7.12502
lthumb 30.0104 46.1215
rfemur -2.74062 16.9584 21.504
rtibia 28.8651
rfoot -24.5142 -29.7062
rtoes 2.20575
lfemur -2.62089 -16.816 -13.8169
ltibia 32.6111
lfoot -26.514 38.115
ltoes -0.725477
43
root -7.3476 17.4131 -1.70641 137.384 -81.6086 -140.619
lowerback 8.49453 -0.131235 1.79527
upperback 1.06162 0.0078892 1.6289
thorax -3.66249 -0.0319769 0.677522
lowerneck -7.68886 1.11892 5.04902
upperneck 4.92672 1.26075 -4.43829
head 3.03973 0.561969 -2.30057
rclavicle -6.06293e-015 6.75868e-015
rhumerus -19.0603 -43.315 -13.5234
rradius 28.6726
rwrist 26.2332
rhand -2.55777 -16.3445
rfingers 7.12502
rthumb 23.1383 -44.9749
lclavicle -6.06293e-015 6.75868e-015
lhumerus -25.9765 53.2614 8.88631
lradius 32.9787
lwrist -25.6963
lhand 4.66307 18.5302
lfingers 7.12502
lthumb 30.0485 46.1087
rfemur -2.7709 16.9705 21.4787
rtibia 28.852
rfoot -24.4835 -29.7052
rtoes 2.19969
lfemur -2.65414 -16.7985 -13.8208
ltibia 32.6173
lfoot -26.5103 38.1095
ltoes -0.693083
44
root -7.34386 17.4137 -1.70214 137.478 -81.6009 -140.701
lowerback 8.50726 -0.127194 1.78942
upperback 1.05673 0.0131253 1.62199
thorax -3.67466 -0.0293368 0.673113
lowerneck -7.70125 1.10767 5.00989
upperneck 4.95182 1.24763 -4.40515
head 3.04875 0.555832 -2.28308
rclavicle -7.11898e-015 -2.70347e-014
rhumerus -19.0481 -43.2312 -13.5458
rradius 28.7147
rwrist 26.1589
rhand -2.5527 -16.3358
rfingers 7.12502
rthumb 23.1432 -44.9656
lclavicle -7.11898e-015 -2.70347e-014
lhumerus -25.9868 53.2263 8.8834
lradius 32.9993
lwrist -25.6659
lhand 4.7177 18.5278
lfingers 7.12502
lthumb 30.1007 46.0968
rfemur -2.79768 16.9816 21.4509
rtibia 28.8407
rfoot -24.4557 -29.7043
rtoes 2.19242
lfemur -2.68367 -16.7823 -13.8299
ltibia 32.6233
lfoot -26.5059 38.1055
ltoes -0.665188
45
root -7.34033 17.4141 -1.69808 137.558 -81.5933 -140.774
lowerback 8.51636 -0.123794 1.78361
upperback 1.05391 0.0173408 1.61597
thorax -3.68266 -0.0271914 0.669695
lowerneck -7.71032 1.09484 4.97523
upperneck 4.97342 1.2324 -4.37807
head 3.05601 0.548534 -2.26853
rclavicle -6.70898e-016 9.14409e-015
rhumerus -19.031 -43.1653 -13.5697
rradius 28.7504
rwrist 26.0988
rhand -2.54978 -16.3418
rfingers 7.12502
rthumb 23.146 -44.9713
lclavicle -6.70898e-016 9.14409e-015
lhumerus -25.9951 53.1816 8.88471
lradius 33.0193
lwrist -25.6155
lhand 4.78871 18.5295
lfingers 7.12502
lthumb 30.1684 46.0861
rfemur -2.8191 16.9922 21.4264
rtibia 28.8305
rfoot -24.4341 -29.7026
rtoes 2.18886
lfemur -2.70838 -16.7671 -13.8388
ltibia 32.6298
lfoot -26.5022 38.1005
ltoes -0.637208
46
root -7.33684 17.4144 -1.69421 137.655 -81.5864 -140.865
lowerback 8.52362 -0.120133 1.77385
upperback 1.05151 0.0214741 1.60977
thorax -3.6892 -0.0250173 0.668327
lowerneck -7.70786 1.08021 4.95933
upperneck 4.9824 1.21442 -4.37274
head 3.0573 0.539516 -2.26477
rclavicle -1.17283e-014 -5.56597e-015
rhumerus -19.008 -43.1385 -13.5921
rradius 28.7729
rwrist 26.0774
rhand -2.54229 -16.3522
rfingers 7.12502
rthumb 23.1532 -44.9808
lclavicle -1.17283e-014 -5.56597e-015
lhumerus -26.0015 53.1246 8.88986
lradius 33.0387
lwrist -25.54
lhand 4.87537 18.5407
lfingers 7.12502
lthumb 30.2511 46.0822
rfemur -2.83962 17.0046 21.4003
rtibia 28.8209
rfoot -24.4138 -29.7019
rtoes 2.18533
lfemur -2.73165 -16.7506 -13.8501
ltibia 32.6362
lfoot -26.497 38.096
ltoes -0.613743
47
root -7.33334 17.4148 -1.69052 137.744 -81.5768 -140.95
lowerback 8.5311 -0.116244 1.76614
upperback 1.04968 0.0260923 1.60442
thorax -3.69527 -0.0226375 0.666614
lowerneck -7.69328 1.06428 4.9583
upperneck 4.97741 1.19452 -4.38484
head 3.05193 0.529273 -2.26955
rclavicle 2.41648e-015 1.05356e-014
rhumerus -18.9795 -43.1377 -13.6144
rradius 28.7832
rwrist 26.0807
rhand -2.53699 -16.3738
rfingers 7.12502
rthumb 23.1583 -45.0018
lclavicle 2.41648e-015 1.05356e-014
lhumerus -26.0074 53.075 8.89441
lradius 33.0541
lwrist -25.4583
lhand 4.97684 18.5571
lfingers 7.12502
lthumb 30.3479 46.0809
rfemur -2.8576 17.0188 21.3784
rtibia 28.8105
rfoot -24.3968 -29.7003
rtoes 2.18966
lfemur -2.75252 -16.7326 -13.8585
ltibia 32.6426
lfoot -26.4938 38.0899
ltoes -0.586331
48
root -7.32969 17.4152 -1.68698 137.832 -81.5655 -141.034
lowerback 8.54007 -0.111789 1.75956
upperback 1.04859 0.0315766 1.59957
thorax -3.7014 -0.0198547 0.664681
lowerneck -7.67482 1.04977 4.96591
upperneck 4.96723 1.17619 -4.40536
head 3.04439 0.519703 -2.27863
rclavicle -3.88873e-015 8.54774e-015
rhumerus -18.9498 -43.1622 -13.6327
rradius 28.7836
rwrist 26.1122
rhand -2.52953 -16.385
rfingers 7.12502
rthumb 23.1654 -45.0121
lclavicle -3.88873e-015 8.54774e-015
lhumerus -26.0122 53.0461 8.89692
lradius 33.0623
lwrist -25.3829
lhand 5.08876 18.574
lfingers 7.12502
lthumb 30.4546 46.078
rfemur -2.87498 17.0345 21.3588
rtibia 28.7983
rfoot -24.3767 -29.7012
rtoes 2.18917
lfemur -2.77304 -16.7128 -13.8644
ltibia 32.6484
lfoot -26.4871 38.0836
ltoes -0.56464
49
root -7.32591 17.4157 -1.68348 137.921 -81.5535 -141.12
lowerback 8.55104 -0.106891 1.75548
upperback 1.048 0.0378958 1.59455
thorax -3.70813 -0.0167071 0.661089
lowerneck -7.65017 1.03703 4.97569
upperneck 4.94954 1.16023 -4.4274
head 3.03329 0.511334 -2.28837
rclavicle -8.64713e-015 -1.21259e-014
rhumerus -18.9207 -43.1908 -13.6498
rradius 28.7806
rwrist 26.148
rhand -2.52916 -16.3958
rfingers 7.12502
rthumb 23.1658 -45.0228
lclavicle -8.64713e-015 -1.21259e-014
lhumerus -26.0156 53.0466 8.89591
lradius 33.061
lwrist -25.3242
lhand 5.21014 18.5876
lfingers 7.12502
lthumb 30.5704 46.0701
rfemur -2.89106 17.0508 21.34
rtibia 28.7834
rfoot -24.3536 -29.7034
rtoes 2.18712
lfemur -2.79355 -16.6924 -13.8697
ltibia 32.6545
lfoot -26.4798 38.0773
ltoes -0.54294
50
root -7.3219 17.4163 -1.68004 137.992 -81.5363 -141.19
lowerback 8.56754 -0.101165 1.75837
upperback 1.0473 0.0461116 1.59062
thorax -3.71804 -0.0127552 0.654504
lowerneck -7.62684 1.02879 4.97701
upperneck 4.93318 1.15029 -4.4367
head 3.02287 0.50626 -2.29192
rclavicle -9.28697e-015 -3.77691e-015
rhumerus -18.8952 -43.2145 -13.6649
rradius 28.7765
rwrist 26.1803
rhand -2.53422 -16.4006
rfingers 7.12502
rthumb 23.1609 -45.0282
lclavicle -9.28697e-015 -3.77691e-015
lhumerus -26.019 53.074 8.89125
lradius 33.0523
lwrist -25.2836
lhand 5.33541 18.5986
lfingers 7.12502
lthumb 30.6898 46.0587
rfemur -2.9059 17.0693 21.3275
rtibia 28.7657
rfoot -24.327 -29.7064
rtoes 2.18715
lfemur -2.81354 -16.6693 -13.8686
ltibia 32.6609
lfoot -26.4716 38.0699
ltoes -0.523996
51
root -7.31784 17.4168 -1.6767 138.05 -81.5161 -141.248
lowerback 8.5881 -0.094553 1.7669
upperback 1.04659 0.0561248 1.58693
thorax -3.73023 -0.00802102 0.644802
lowerneck -7.61032 1.01869 4.97446
upperneck 4.9227 1.1377 -4.43961
head 3.01545 0.499977 -2.29283
rclavicle 9.8212e-015 2.16675e-014
rhumerus -18.875 -43.2178 -13.6796
rradius 28.7754
rwrist 26.192
rhand -2.55037 -16.4054
rfingers 7.12502
rthumb 23.1454 -45.0349
lclavicle 9.8212e-015 2.16675e-014
lhumerus -26.02 53.1215 8.8851
lradius 33.0367
lwrist -25.2607
lhand 5.4645 18.6063
lfingers 7.12502
lthumb 30.8129 46.0432
rfemur -2.91677 17.089 21.3201
rtibia 28.7455
rfoot -24.2983 -29.7103
rtoes 2.18459
lfemur -2.83079 -16.6452 -13.8642
ltibia 32.6679
lfoot -26.4611 38.0628
ltoes -0.512308
52
root -7.31377 17.4173 -1.67352 138.102 -81.4941 -141.304
lowerback 8.6126 -0.087904 1.77776
upperback 1.04484 0.0665651 1.58397
thorax -3.74568 -0.00313096 0.634507
lowerneck -7.59899 1.00784 4.96473
upperneck 4.92055 1.12424 -4.4337
head 3.01157 0.493417 -2.28958
rclavicle -1.14674e-014 -1.39149e-015
rhumerus -18.8601 -43.2012 -13.693
rradius 28.7788
rwrist 26.1877
rhand -2.57003 -16.399
rfingers 7.12502
rthumb 23.1266 -45.031
lclavicle -1.14674e-014 -1.39149e-015
lhumerus -26.0257 53.1803 8.87343
lradius 33.0184
lwrist -25.2503
lhand 5.59598 18.6133
lfingers 7.12502
lthumb 30.9383 46.0265
rfemur -2.92433 17.1096 21.3157
rtibia 28.7239
rfoot -24.2692 -29.7132
rtoes 2.18634
lfemur -2.84508 -16.6203 -13.8582
ltibia 32.6753
lfoot -26.4533 38.0545
ltoes -0.497994
